<?xml version="1.0" encoding="utf-8" standalone="no"?>
<!DOCTYPE svg PUBLIC "-//W3C//DTD SVG 1.1//EN"
  "http://www.w3.org/Graphics/SVG/1.1/DTD/svg11.dtd">
<svg xmlns:xlink="http://www.w3.org/1999/xlink" width="648pt" height="216pt" viewBox="0 0 648 216" xmlns="http://www.w3.org/2000/svg" version="1.1">
 <metadata>
  <rdf:RDF xmlns:dc="http://purl.org/dc/elements/1.1/" xmlns:cc="http://creativecommons.org/ns#" xmlns:rdf="http://www.w3.org/1999/02/22-rdf-syntax-ns#">
   <cc:Work>
    <dc:type rdf:resource="http://purl.org/dc/dcmitype/StillImage"/>
    <dc:date>2026-03-01T14:31:00.689923</dc:date>
    <dc:format>image/svg+xml</dc:format>
    <dc:creator>
     <cc:Agent>
      <dc:title>Matplotlib v3.10.6, https://matplotlib.org/</dc:title>
     </cc:Agent>
    </dc:creator>
   </cc:Work>
  </rdf:RDF>
 </metadata>
 <defs>
  <style type="text/css">*{stroke-linejoin: round; stroke-linecap: butt}</style>
 </defs>
 <g id="figure_1">
  <g id="patch_1">
   <path d="M 0 216 
L 648 216 
L 648 0 
L 0 0 
z
" style="fill: #ffffff"/>
  </g>
  <g id="axes_1">
   <g id="patch_2">
    <path d="M 55.64 172.6 
L 312.21 172.6 
L 312.21 26.16 
L 55.64 26.16 
z
" style="fill: #ffffff"/>
   </g>
   <g id="matplotlib.axis_1">
    <g id="xtick_1">
     <g id="line2d_1">
      <path d="M 55.64 172.6 
L 55.64 26.16 
" clip-path="url(#p5cf5b6c7b2)" style="fill: none; stroke-dasharray: 0.8,1.32; stroke-dashoffset: 0; stroke: #b0b0b0; stroke-opacity: 0.4; stroke-width: 0.8"/>
     </g>
     <g id="line2d_2">
      <defs>
       <path id="m5072737e17" d="M 0 0 
L 0 3.5 
" style="stroke: #000000; stroke-width: 0.8"/>
      </defs>
      <g>
       <use xlink:href="#m5072737e17" x="55.64" y="172.6" style="stroke: #000000; stroke-width: 0.8"/>
      </g>
     </g>
     <g id="text_1">
      <!-- 0 -->
      <g transform="translate(52.45875 187.198438) scale(0.1 -0.1)">
       <defs>
        <path id="DejaVuSans-30" d="M 2034 4250 
Q 1547 4250 1301 3770 
Q 1056 3291 1056 2328 
Q 1056 1369 1301 889 
Q 1547 409 2034 409 
Q 2525 409 2770 889 
Q 3016 1369 3016 2328 
Q 3016 3291 2770 3770 
Q 2525 4250 2034 4250 
z
M 2034 4750 
Q 2819 4750 3233 4129 
Q 3647 3509 3647 2328 
Q 3647 1150 3233 529 
Q 2819 -91 2034 -91 
Q 1250 -91 836 529 
Q 422 1150 422 2328 
Q 422 3509 836 4129 
Q 1250 4750 2034 4750 
z
" transform="scale(0.015625)"/>
       </defs>
       <use xlink:href="#DejaVuSans-30"/>
      </g>
     </g>
    </g>
    <g id="xtick_2">
     <g id="line2d_3">
      <path d="M 98.401667 172.6 
L 98.401667 26.16 
" clip-path="url(#p5cf5b6c7b2)" style="fill: none; stroke-dasharray: 0.8,1.32; stroke-dashoffset: 0; stroke: #b0b0b0; stroke-opacity: 0.4; stroke-width: 0.8"/>
     </g>
     <g id="line2d_4">
      <g>
       <use xlink:href="#m5072737e17" x="98.401667" y="172.6" style="stroke: #000000; stroke-width: 0.8"/>
      </g>
     </g>
     <g id="text_2">
      <!-- 2 -->
      <g transform="translate(95.220417 187.198438) scale(0.1 -0.1)">
       <defs>
        <path id="DejaVuSans-32" d="M 1228 531 
L 3431 531 
L 3431 0 
L 469 0 
L 469 531 
Q 828 903 1448 1529 
Q 2069 2156 2228 2338 
Q 2531 2678 2651 2914 
Q 2772 3150 2772 3378 
Q 2772 3750 2511 3984 
Q 2250 4219 1831 4219 
Q 1534 4219 1204 4116 
Q 875 4013 500 3803 
L 500 4441 
Q 881 4594 1212 4672 
Q 1544 4750 1819 4750 
Q 2544 4750 2975 4387 
Q 3406 4025 3406 3419 
Q 3406 3131 3298 2873 
Q 3191 2616 2906 2266 
Q 2828 2175 2409 1742 
Q 1991 1309 1228 531 
z
" transform="scale(0.015625)"/>
       </defs>
       <use xlink:href="#DejaVuSans-32"/>
      </g>
     </g>
    </g>
    <g id="xtick_3">
     <g id="line2d_5">
      <path d="M 141.163333 172.6 
L 141.163333 26.16 
" clip-path="url(#p5cf5b6c7b2)" style="fill: none; stroke-dasharray: 0.8,1.32; stroke-dashoffset: 0; stroke: #b0b0b0; stroke-opacity: 0.4; stroke-width: 0.8"/>
     </g>
     <g id="line2d_6">
      <g>
       <use xlink:href="#m5072737e17" x="141.163333" y="172.6" style="stroke: #000000; stroke-width: 0.8"/>
      </g>
     </g>
     <g id="text_3">
      <!-- 4 -->
      <g transform="translate(137.982083 187.198438) scale(0.1 -0.1)">
       <defs>
        <path id="DejaVuSans-34" d="M 2419 4116 
L 825 1625 
L 2419 1625 
L 2419 4116 
z
M 2253 4666 
L 3047 4666 
L 3047 1625 
L 3713 1625 
L 3713 1100 
L 3047 1100 
L 3047 0 
L 2419 0 
L 2419 1100 
L 313 1100 
L 313 1709 
L 2253 4666 
z
" transform="scale(0.015625)"/>
       </defs>
       <use xlink:href="#DejaVuSans-34"/>
      </g>
     </g>
    </g>
    <g id="xtick_4">
     <g id="line2d_7">
      <path d="M 183.925 172.6 
L 183.925 26.16 
" clip-path="url(#p5cf5b6c7b2)" style="fill: none; stroke-dasharray: 0.8,1.32; stroke-dashoffset: 0; stroke: #b0b0b0; stroke-opacity: 0.4; stroke-width: 0.8"/>
     </g>
     <g id="line2d_8">
      <g>
       <use xlink:href="#m5072737e17" x="183.925" y="172.6" style="stroke: #000000; stroke-width: 0.8"/>
      </g>
     </g>
     <g id="text_4">
      <!-- 6 -->
      <g transform="translate(180.74375 187.198438) scale(0.1 -0.1)">
       <defs>
        <path id="DejaVuSans-36" d="M 2113 2584 
Q 1688 2584 1439 2293 
Q 1191 2003 1191 1497 
Q 1191 994 1439 701 
Q 1688 409 2113 409 
Q 2538 409 2786 701 
Q 3034 994 3034 1497 
Q 3034 2003 2786 2293 
Q 2538 2584 2113 2584 
z
M 3366 4563 
L 3366 3988 
Q 3128 4100 2886 4159 
Q 2644 4219 2406 4219 
Q 1781 4219 1451 3797 
Q 1122 3375 1075 2522 
Q 1259 2794 1537 2939 
Q 1816 3084 2150 3084 
Q 2853 3084 3261 2657 
Q 3669 2231 3669 1497 
Q 3669 778 3244 343 
Q 2819 -91 2113 -91 
Q 1303 -91 875 529 
Q 447 1150 447 2328 
Q 447 3434 972 4092 
Q 1497 4750 2381 4750 
Q 2619 4750 2861 4703 
Q 3103 4656 3366 4563 
z
" transform="scale(0.015625)"/>
       </defs>
       <use xlink:href="#DejaVuSans-36"/>
      </g>
     </g>
    </g>
    <g id="xtick_5">
     <g id="line2d_9">
      <path d="M 226.686667 172.6 
L 226.686667 26.16 
" clip-path="url(#p5cf5b6c7b2)" style="fill: none; stroke-dasharray: 0.8,1.32; stroke-dashoffset: 0; stroke: #b0b0b0; stroke-opacity: 0.4; stroke-width: 0.8"/>
     </g>
     <g id="line2d_10">
      <g>
       <use xlink:href="#m5072737e17" x="226.686667" y="172.6" style="stroke: #000000; stroke-width: 0.8"/>
      </g>
     </g>
     <g id="text_5">
      <!-- 8 -->
      <g transform="translate(223.505417 187.198438) scale(0.1 -0.1)">
       <defs>
        <path id="DejaVuSans-38" d="M 2034 2216 
Q 1584 2216 1326 1975 
Q 1069 1734 1069 1313 
Q 1069 891 1326 650 
Q 1584 409 2034 409 
Q 2484 409 2743 651 
Q 3003 894 3003 1313 
Q 3003 1734 2745 1975 
Q 2488 2216 2034 2216 
z
M 1403 2484 
Q 997 2584 770 2862 
Q 544 3141 544 3541 
Q 544 4100 942 4425 
Q 1341 4750 2034 4750 
Q 2731 4750 3128 4425 
Q 3525 4100 3525 3541 
Q 3525 3141 3298 2862 
Q 3072 2584 2669 2484 
Q 3125 2378 3379 2068 
Q 3634 1759 3634 1313 
Q 3634 634 3220 271 
Q 2806 -91 2034 -91 
Q 1263 -91 848 271 
Q 434 634 434 1313 
Q 434 1759 690 2068 
Q 947 2378 1403 2484 
z
M 1172 3481 
Q 1172 3119 1398 2916 
Q 1625 2713 2034 2713 
Q 2441 2713 2670 2916 
Q 2900 3119 2900 3481 
Q 2900 3844 2670 4047 
Q 2441 4250 2034 4250 
Q 1625 4250 1398 4047 
Q 1172 3844 1172 3481 
z
" transform="scale(0.015625)"/>
       </defs>
       <use xlink:href="#DejaVuSans-38"/>
      </g>
     </g>
    </g>
    <g id="xtick_6">
     <g id="line2d_11">
      <path d="M 269.448333 172.6 
L 269.448333 26.16 
" clip-path="url(#p5cf5b6c7b2)" style="fill: none; stroke-dasharray: 0.8,1.32; stroke-dashoffset: 0; stroke: #b0b0b0; stroke-opacity: 0.4; stroke-width: 0.8"/>
     </g>
     <g id="line2d_12">
      <g>
       <use xlink:href="#m5072737e17" x="269.448333" y="172.6" style="stroke: #000000; stroke-width: 0.8"/>
      </g>
     </g>
     <g id="text_6">
      <!-- 10 -->
      <g transform="translate(263.085833 187.198438) scale(0.1 -0.1)">
       <defs>
        <path id="DejaVuSans-31" d="M 794 531 
L 1825 531 
L 1825 4091 
L 703 3866 
L 703 4441 
L 1819 4666 
L 2450 4666 
L 2450 531 
L 3481 531 
L 3481 0 
L 794 0 
L 794 531 
z
" transform="scale(0.015625)"/>
       </defs>
       <use xlink:href="#DejaVuSans-31"/>
       <use xlink:href="#DejaVuSans-30" transform="translate(63.623047 0)"/>
      </g>
     </g>
    </g>
    <g id="xtick_7">
     <g id="line2d_13">
      <path d="M 312.21 172.6 
L 312.21 26.16 
" clip-path="url(#p5cf5b6c7b2)" style="fill: none; stroke-dasharray: 0.8,1.32; stroke-dashoffset: 0; stroke: #b0b0b0; stroke-opacity: 0.4; stroke-width: 0.8"/>
     </g>
     <g id="line2d_14">
      <g>
       <use xlink:href="#m5072737e17" x="312.21" y="172.6" style="stroke: #000000; stroke-width: 0.8"/>
      </g>
     </g>
     <g id="text_7">
      <!-- 12 -->
      <g transform="translate(305.8475 187.198438) scale(0.1 -0.1)">
       <use xlink:href="#DejaVuSans-31"/>
       <use xlink:href="#DejaVuSans-32" transform="translate(63.623047 0)"/>
      </g>
     </g>
    </g>
    <g id="text_8">
     <!-- $I$ (mA) -->
     <g transform="translate(168.625 200.876563) scale(0.1 -0.1)">
      <defs>
       <path id="DejaVuSans-Oblique-49" d="M 1081 4666 
L 1716 4666 
L 806 0 
L 172 0 
L 1081 4666 
z
" transform="scale(0.015625)"/>
       <path id="DejaVuSans-20" transform="scale(0.015625)"/>
       <path id="DejaVuSans-28" d="M 1984 4856 
Q 1566 4138 1362 3434 
Q 1159 2731 1159 2009 
Q 1159 1288 1364 580 
Q 1569 -128 1984 -844 
L 1484 -844 
Q 1016 -109 783 600 
Q 550 1309 550 2009 
Q 550 2706 781 3412 
Q 1013 4119 1484 4856 
L 1984 4856 
z
" transform="scale(0.015625)"/>
       <path id="DejaVuSans-6d" d="M 3328 2828 
Q 3544 3216 3844 3400 
Q 4144 3584 4550 3584 
Q 5097 3584 5394 3201 
Q 5691 2819 5691 2113 
L 5691 0 
L 5113 0 
L 5113 2094 
Q 5113 2597 4934 2840 
Q 4756 3084 4391 3084 
Q 3944 3084 3684 2787 
Q 3425 2491 3425 1978 
L 3425 0 
L 2847 0 
L 2847 2094 
Q 2847 2600 2669 2842 
Q 2491 3084 2119 3084 
Q 1678 3084 1418 2786 
Q 1159 2488 1159 1978 
L 1159 0 
L 581 0 
L 581 3500 
L 1159 3500 
L 1159 2956 
Q 1356 3278 1631 3431 
Q 1906 3584 2284 3584 
Q 2666 3584 2933 3390 
Q 3200 3197 3328 2828 
z
" transform="scale(0.015625)"/>
       <path id="DejaVuSans-41" d="M 2188 4044 
L 1331 1722 
L 3047 1722 
L 2188 4044 
z
M 1831 4666 
L 2547 4666 
L 4325 0 
L 3669 0 
L 3244 1197 
L 1141 1197 
L 716 0 
L 50 0 
L 1831 4666 
z
" transform="scale(0.015625)"/>
       <path id="DejaVuSans-29" d="M 513 4856 
L 1013 4856 
Q 1481 4119 1714 3412 
Q 1947 2706 1947 2009 
Q 1947 1309 1714 600 
Q 1481 -109 1013 -844 
L 513 -844 
Q 928 -128 1133 580 
Q 1338 1288 1338 2009 
Q 1338 2731 1133 3434 
Q 928 4138 513 4856 
z
" transform="scale(0.015625)"/>
      </defs>
      <use xlink:href="#DejaVuSans-Oblique-49" transform="translate(0 0.125)"/>
      <use xlink:href="#DejaVuSans-20" transform="translate(29.492188 0.125)"/>
      <use xlink:href="#DejaVuSans-28" transform="translate(61.279297 0.125)"/>
      <use xlink:href="#DejaVuSans-6d" transform="translate(100.292969 0.125)"/>
      <use xlink:href="#DejaVuSans-41" transform="translate(197.705078 0.125)"/>
      <use xlink:href="#DejaVuSans-29" transform="translate(266.113281 0.125)"/>
     </g>
    </g>
   </g>
   <g id="matplotlib.axis_2">
    <g id="ytick_1">
     <g id="line2d_15">
      <path d="M 55.64 156.328889 
L 312.21 156.328889 
" clip-path="url(#p5cf5b6c7b2)" style="fill: none; stroke-dasharray: 0.8,1.32; stroke-dashoffset: 0; stroke: #b0b0b0; stroke-opacity: 0.4; stroke-width: 0.8"/>
     </g>
     <g id="line2d_16">
      <defs>
       <path id="m54657a6941" d="M 0 0 
L -3.5 0 
" style="stroke: #000000; stroke-width: 0.8"/>
      </defs>
      <g>
       <use xlink:href="#m54657a6941" x="55.64" y="156.328889" style="stroke: #000000; stroke-width: 0.8"/>
      </g>
     </g>
     <g id="text_9">
      <!-- 9.4 -->
      <g transform="translate(32.736875 160.128108) scale(0.1 -0.1)">
       <defs>
        <path id="DejaVuSans-39" d="M 703 97 
L 703 672 
Q 941 559 1184 500 
Q 1428 441 1663 441 
Q 2288 441 2617 861 
Q 2947 1281 2994 2138 
Q 2813 1869 2534 1725 
Q 2256 1581 1919 1581 
Q 1219 1581 811 2004 
Q 403 2428 403 3163 
Q 403 3881 828 4315 
Q 1253 4750 1959 4750 
Q 2769 4750 3195 4129 
Q 3622 3509 3622 2328 
Q 3622 1225 3098 567 
Q 2575 -91 1691 -91 
Q 1453 -91 1209 -44 
Q 966 3 703 97 
z
M 1959 2075 
Q 2384 2075 2632 2365 
Q 2881 2656 2881 3163 
Q 2881 3666 2632 3958 
Q 2384 4250 1959 4250 
Q 1534 4250 1286 3958 
Q 1038 3666 1038 3163 
Q 1038 2656 1286 2365 
Q 1534 2075 1959 2075 
z
" transform="scale(0.015625)"/>
        <path id="DejaVuSans-2e" d="M 684 794 
L 1344 794 
L 1344 0 
L 684 0 
L 684 794 
z
" transform="scale(0.015625)"/>
       </defs>
       <use xlink:href="#DejaVuSans-39"/>
       <use xlink:href="#DejaVuSans-2e" transform="translate(63.623047 0)"/>
       <use xlink:href="#DejaVuSans-34" transform="translate(95.410156 0)"/>
      </g>
     </g>
    </g>
    <g id="ytick_2">
     <g id="line2d_17">
      <path d="M 55.64 123.786667 
L 312.21 123.786667 
" clip-path="url(#p5cf5b6c7b2)" style="fill: none; stroke-dasharray: 0.8,1.32; stroke-dashoffset: 0; stroke: #b0b0b0; stroke-opacity: 0.4; stroke-width: 0.8"/>
     </g>
     <g id="line2d_18">
      <g>
       <use xlink:href="#m54657a6941" x="55.64" y="123.786667" style="stroke: #000000; stroke-width: 0.8"/>
      </g>
     </g>
     <g id="text_10">
      <!-- 9.6 -->
      <g transform="translate(32.736875 127.585885) scale(0.1 -0.1)">
       <use xlink:href="#DejaVuSans-39"/>
       <use xlink:href="#DejaVuSans-2e" transform="translate(63.623047 0)"/>
       <use xlink:href="#DejaVuSans-36" transform="translate(95.410156 0)"/>
      </g>
     </g>
    </g>
    <g id="ytick_3">
     <g id="line2d_19">
      <path d="M 55.64 91.244444 
L 312.21 91.244444 
" clip-path="url(#p5cf5b6c7b2)" style="fill: none; stroke-dasharray: 0.8,1.32; stroke-dashoffset: 0; stroke: #b0b0b0; stroke-opacity: 0.4; stroke-width: 0.8"/>
     </g>
     <g id="line2d_20">
      <g>
       <use xlink:href="#m54657a6941" x="55.64" y="91.244444" style="stroke: #000000; stroke-width: 0.8"/>
      </g>
     </g>
     <g id="text_11">
      <!-- 9.8 -->
      <g transform="translate(32.736875 95.043663) scale(0.1 -0.1)">
       <use xlink:href="#DejaVuSans-39"/>
       <use xlink:href="#DejaVuSans-2e" transform="translate(63.623047 0)"/>
       <use xlink:href="#DejaVuSans-38" transform="translate(95.410156 0)"/>
      </g>
     </g>
    </g>
    <g id="ytick_4">
     <g id="line2d_21">
      <path d="M 55.64 58.702222 
L 312.21 58.702222 
" clip-path="url(#p5cf5b6c7b2)" style="fill: none; stroke-dasharray: 0.8,1.32; stroke-dashoffset: 0; stroke: #b0b0b0; stroke-opacity: 0.4; stroke-width: 0.8"/>
     </g>
     <g id="line2d_22">
      <g>
       <use xlink:href="#m54657a6941" x="55.64" y="58.702222" style="stroke: #000000; stroke-width: 0.8"/>
      </g>
     </g>
     <g id="text_12">
      <!-- 10.0 -->
      <g transform="translate(26.374375 62.501441) scale(0.1 -0.1)">
       <use xlink:href="#DejaVuSans-31"/>
       <use xlink:href="#DejaVuSans-30" transform="translate(63.623047 0)"/>
       <use xlink:href="#DejaVuSans-2e" transform="translate(127.246094 0)"/>
       <use xlink:href="#DejaVuSans-30" transform="translate(159.033203 0)"/>
      </g>
     </g>
    </g>
    <g id="ytick_5">
     <g id="line2d_23">
      <path d="M 55.64 26.16 
L 312.21 26.16 
" clip-path="url(#p5cf5b6c7b2)" style="fill: none; stroke-dasharray: 0.8,1.32; stroke-dashoffset: 0; stroke: #b0b0b0; stroke-opacity: 0.4; stroke-width: 0.8"/>
     </g>
     <g id="line2d_24">
      <g>
       <use xlink:href="#m54657a6941" x="55.64" y="26.16" style="stroke: #000000; stroke-width: 0.8"/>
      </g>
     </g>
     <g id="text_13">
      <!-- 10.2 -->
      <g transform="translate(26.374375 29.959219) scale(0.1 -0.1)">
       <use xlink:href="#DejaVuSans-31"/>
       <use xlink:href="#DejaVuSans-30" transform="translate(63.623047 0)"/>
       <use xlink:href="#DejaVuSans-2e" transform="translate(127.246094 0)"/>
       <use xlink:href="#DejaVuSans-32" transform="translate(159.033203 0)"/>
      </g>
     </g>
    </g>
    <g id="text_14">
     <!-- $U$ (V) -->
     <g transform="translate(20.294688 111.98) rotate(-90) scale(0.1 -0.1)">
      <defs>
       <path id="DejaVuSans-Oblique-55" d="M 991 4666 
L 1625 4666 
L 1075 1831 
Q 1041 1641 1027 1517 
Q 1013 1394 1013 1300 
Q 1013 869 1253 645 
Q 1494 422 1959 422 
Q 2563 422 2898 753 
Q 3234 1084 3378 1831 
L 3928 4666 
L 4563 4666 
L 4000 1753 
Q 3816 809 3300 359 
Q 2784 -91 1888 -91 
Q 1188 -91 780 261 
Q 372 613 372 1216 
Q 372 1325 387 1461 
Q 403 1597 434 1753 
L 991 4666 
z
" transform="scale(0.015625)"/>
       <path id="DejaVuSans-56" d="M 1831 0 
L 50 4666 
L 709 4666 
L 2188 738 
L 3669 4666 
L 4325 4666 
L 2547 0 
L 1831 0 
z
" transform="scale(0.015625)"/>
      </defs>
      <use xlink:href="#DejaVuSans-Oblique-55" transform="translate(0 0.125)"/>
      <use xlink:href="#DejaVuSans-20" transform="translate(73.193359 0.125)"/>
      <use xlink:href="#DejaVuSans-28" transform="translate(104.980469 0.125)"/>
      <use xlink:href="#DejaVuSans-56" transform="translate(143.994141 0.125)"/>
      <use xlink:href="#DejaVuSans-29" transform="translate(212.402344 0.125)"/>
     </g>
    </g>
   </g>
   <g id="line2d_25">
    <defs>
     <path id="m6de5b71103" d="M 0 1.5 
C 0.397805 1.5 0.77937 1.341951 1.06066 1.06066 
C 1.341951 0.77937 1.5 0.397805 1.5 0 
C 1.5 -0.397805 1.341951 -0.77937 1.06066 -1.06066 
C 0.77937 -1.341951 0.397805 -1.5 0 -1.5 
C -0.397805 -1.5 -0.77937 -1.341951 -1.06066 -1.06066 
C -1.341951 -0.77937 -1.5 -0.397805 -1.5 0 
C -1.5 0.397805 -1.341951 0.77937 -1.06066 1.06066 
C -0.77937 1.341951 -0.397805 1.5 0 1.5 
z
" style="stroke: #ff0000"/>
    </defs>
    <g clip-path="url(#p5cf5b6c7b2)">
     <use xlink:href="#m6de5b71103" x="98.401667" y="74.973333" style="fill: #ff0000; stroke: #ff0000"/>
     <use xlink:href="#m6de5b71103" x="141.163333" y="91.244444" style="fill: #ff0000; stroke: #ff0000"/>
     <use xlink:href="#m6de5b71103" x="183.925" y="107.515556" style="fill: #ff0000; stroke: #ff0000"/>
     <use xlink:href="#m6de5b71103" x="226.686667" y="123.786667" style="fill: #ff0000; stroke: #ff0000"/>
     <use xlink:href="#m6de5b71103" x="269.448333" y="140.057778" style="fill: #ff0000; stroke: #ff0000"/>
    </g>
   </g>
   <g id="line2d_26">
    <path d="M 55.64 58.702222 
L 312.21 156.328889 
" clip-path="url(#p5cf5b6c7b2)" style="fill: none; stroke: #4682b4; stroke-width: 2; stroke-linecap: square"/>
   </g>
   <g id="patch_3">
    <path d="M 55.64 172.6 
L 55.64 26.16 
" style="fill: none; stroke: #000000; stroke-width: 0.8; stroke-linejoin: miter; stroke-linecap: square"/>
   </g>
   <g id="patch_4">
    <path d="M 55.64 172.6 
L 312.21 172.6 
" style="fill: none; stroke: #000000; stroke-width: 0.8; stroke-linejoin: miter; stroke-linecap: square"/>
   </g>
   <g id="text_15">
    <!-- Représentation idéalisée -->
    <g transform="translate(109.765 20.16) scale(0.12 -0.12)">
     <defs>
      <path id="DejaVuSans-52" d="M 2841 2188 
Q 3044 2119 3236 1894 
Q 3428 1669 3622 1275 
L 4263 0 
L 3584 0 
L 2988 1197 
Q 2756 1666 2539 1819 
Q 2322 1972 1947 1972 
L 1259 1972 
L 1259 0 
L 628 0 
L 628 4666 
L 2053 4666 
Q 2853 4666 3247 4331 
Q 3641 3997 3641 3322 
Q 3641 2881 3436 2590 
Q 3231 2300 2841 2188 
z
M 1259 4147 
L 1259 2491 
L 2053 2491 
Q 2509 2491 2742 2702 
Q 2975 2913 2975 3322 
Q 2975 3731 2742 3939 
Q 2509 4147 2053 4147 
L 1259 4147 
z
" transform="scale(0.015625)"/>
      <path id="DejaVuSans-65" d="M 3597 1894 
L 3597 1613 
L 953 1613 
Q 991 1019 1311 708 
Q 1631 397 2203 397 
Q 2534 397 2845 478 
Q 3156 559 3463 722 
L 3463 178 
Q 3153 47 2828 -22 
Q 2503 -91 2169 -91 
Q 1331 -91 842 396 
Q 353 884 353 1716 
Q 353 2575 817 3079 
Q 1281 3584 2069 3584 
Q 2775 3584 3186 3129 
Q 3597 2675 3597 1894 
z
M 3022 2063 
Q 3016 2534 2758 2815 
Q 2500 3097 2075 3097 
Q 1594 3097 1305 2825 
Q 1016 2553 972 2059 
L 3022 2063 
z
" transform="scale(0.015625)"/>
      <path id="DejaVuSans-70" d="M 1159 525 
L 1159 -1331 
L 581 -1331 
L 581 3500 
L 1159 3500 
L 1159 2969 
Q 1341 3281 1617 3432 
Q 1894 3584 2278 3584 
Q 2916 3584 3314 3078 
Q 3713 2572 3713 1747 
Q 3713 922 3314 415 
Q 2916 -91 2278 -91 
Q 1894 -91 1617 61 
Q 1341 213 1159 525 
z
M 3116 1747 
Q 3116 2381 2855 2742 
Q 2594 3103 2138 3103 
Q 1681 3103 1420 2742 
Q 1159 2381 1159 1747 
Q 1159 1113 1420 752 
Q 1681 391 2138 391 
Q 2594 391 2855 752 
Q 3116 1113 3116 1747 
z
" transform="scale(0.015625)"/>
      <path id="DejaVuSans-72" d="M 2631 2963 
Q 2534 3019 2420 3045 
Q 2306 3072 2169 3072 
Q 1681 3072 1420 2755 
Q 1159 2438 1159 1844 
L 1159 0 
L 581 0 
L 581 3500 
L 1159 3500 
L 1159 2956 
Q 1341 3275 1631 3429 
Q 1922 3584 2338 3584 
Q 2397 3584 2469 3576 
Q 2541 3569 2628 3553 
L 2631 2963 
z
" transform="scale(0.015625)"/>
      <path id="DejaVuSans-e9" d="M 3597 1894 
L 3597 1613 
L 953 1613 
Q 991 1019 1311 708 
Q 1631 397 2203 397 
Q 2534 397 2845 478 
Q 3156 559 3463 722 
L 3463 178 
Q 3153 47 2828 -22 
Q 2503 -91 2169 -91 
Q 1331 -91 842 396 
Q 353 884 353 1716 
Q 353 2575 817 3079 
Q 1281 3584 2069 3584 
Q 2775 3584 3186 3129 
Q 3597 2675 3597 1894 
z
M 3022 2063 
Q 3016 2534 2758 2815 
Q 2500 3097 2075 3097 
Q 1594 3097 1305 2825 
Q 1016 2553 972 2059 
L 3022 2063 
z
M 2469 5119 
L 3091 5119 
L 2072 3944 
L 1594 3944 
L 2469 5119 
z
" transform="scale(0.015625)"/>
      <path id="DejaVuSans-73" d="M 2834 3397 
L 2834 2853 
Q 2591 2978 2328 3040 
Q 2066 3103 1784 3103 
Q 1356 3103 1142 2972 
Q 928 2841 928 2578 
Q 928 2378 1081 2264 
Q 1234 2150 1697 2047 
L 1894 2003 
Q 2506 1872 2764 1633 
Q 3022 1394 3022 966 
Q 3022 478 2636 193 
Q 2250 -91 1575 -91 
Q 1294 -91 989 -36 
Q 684 19 347 128 
L 347 722 
Q 666 556 975 473 
Q 1284 391 1588 391 
Q 1994 391 2212 530 
Q 2431 669 2431 922 
Q 2431 1156 2273 1281 
Q 2116 1406 1581 1522 
L 1381 1569 
Q 847 1681 609 1914 
Q 372 2147 372 2553 
Q 372 3047 722 3315 
Q 1072 3584 1716 3584 
Q 2034 3584 2315 3537 
Q 2597 3491 2834 3397 
z
" transform="scale(0.015625)"/>
      <path id="DejaVuSans-6e" d="M 3513 2113 
L 3513 0 
L 2938 0 
L 2938 2094 
Q 2938 2591 2744 2837 
Q 2550 3084 2163 3084 
Q 1697 3084 1428 2787 
Q 1159 2491 1159 1978 
L 1159 0 
L 581 0 
L 581 3500 
L 1159 3500 
L 1159 2956 
Q 1366 3272 1645 3428 
Q 1925 3584 2291 3584 
Q 2894 3584 3203 3211 
Q 3513 2838 3513 2113 
z
" transform="scale(0.015625)"/>
      <path id="DejaVuSans-74" d="M 1172 4494 
L 1172 3500 
L 2356 3500 
L 2356 3053 
L 1172 3053 
L 1172 1153 
Q 1172 725 1289 603 
Q 1406 481 1766 481 
L 2356 481 
L 2356 0 
L 1766 0 
Q 1100 0 847 248 
Q 594 497 594 1153 
L 594 3053 
L 172 3053 
L 172 3500 
L 594 3500 
L 594 4494 
L 1172 4494 
z
" transform="scale(0.015625)"/>
      <path id="DejaVuSans-61" d="M 2194 1759 
Q 1497 1759 1228 1600 
Q 959 1441 959 1056 
Q 959 750 1161 570 
Q 1363 391 1709 391 
Q 2188 391 2477 730 
Q 2766 1069 2766 1631 
L 2766 1759 
L 2194 1759 
z
M 3341 1997 
L 3341 0 
L 2766 0 
L 2766 531 
Q 2569 213 2275 61 
Q 1981 -91 1556 -91 
Q 1019 -91 701 211 
Q 384 513 384 1019 
Q 384 1609 779 1909 
Q 1175 2209 1959 2209 
L 2766 2209 
L 2766 2266 
Q 2766 2663 2505 2880 
Q 2244 3097 1772 3097 
Q 1472 3097 1187 3025 
Q 903 2953 641 2809 
L 641 3341 
Q 956 3463 1253 3523 
Q 1550 3584 1831 3584 
Q 2591 3584 2966 3190 
Q 3341 2797 3341 1997 
z
" transform="scale(0.015625)"/>
      <path id="DejaVuSans-69" d="M 603 3500 
L 1178 3500 
L 1178 0 
L 603 0 
L 603 3500 
z
M 603 4863 
L 1178 4863 
L 1178 4134 
L 603 4134 
L 603 4863 
z
" transform="scale(0.015625)"/>
      <path id="DejaVuSans-6f" d="M 1959 3097 
Q 1497 3097 1228 2736 
Q 959 2375 959 1747 
Q 959 1119 1226 758 
Q 1494 397 1959 397 
Q 2419 397 2687 759 
Q 2956 1122 2956 1747 
Q 2956 2369 2687 2733 
Q 2419 3097 1959 3097 
z
M 1959 3584 
Q 2709 3584 3137 3096 
Q 3566 2609 3566 1747 
Q 3566 888 3137 398 
Q 2709 -91 1959 -91 
Q 1206 -91 779 398 
Q 353 888 353 1747 
Q 353 2609 779 3096 
Q 1206 3584 1959 3584 
z
" transform="scale(0.015625)"/>
      <path id="DejaVuSans-64" d="M 2906 2969 
L 2906 4863 
L 3481 4863 
L 3481 0 
L 2906 0 
L 2906 525 
Q 2725 213 2448 61 
Q 2172 -91 1784 -91 
Q 1150 -91 751 415 
Q 353 922 353 1747 
Q 353 2572 751 3078 
Q 1150 3584 1784 3584 
Q 2172 3584 2448 3432 
Q 2725 3281 2906 2969 
z
M 947 1747 
Q 947 1113 1208 752 
Q 1469 391 1925 391 
Q 2381 391 2643 752 
Q 2906 1113 2906 1747 
Q 2906 2381 2643 2742 
Q 2381 3103 1925 3103 
Q 1469 3103 1208 2742 
Q 947 2381 947 1747 
z
" transform="scale(0.015625)"/>
      <path id="DejaVuSans-6c" d="M 603 4863 
L 1178 4863 
L 1178 0 
L 603 0 
L 603 4863 
z
" transform="scale(0.015625)"/>
     </defs>
     <use xlink:href="#DejaVuSans-52"/>
     <use xlink:href="#DejaVuSans-65" transform="translate(64.982422 0)"/>
     <use xlink:href="#DejaVuSans-70" transform="translate(126.505859 0)"/>
     <use xlink:href="#DejaVuSans-72" transform="translate(189.982422 0)"/>
     <use xlink:href="#DejaVuSans-e9" transform="translate(228.845703 0)"/>
     <use xlink:href="#DejaVuSans-73" transform="translate(290.369141 0)"/>
     <use xlink:href="#DejaVuSans-65" transform="translate(342.46875 0)"/>
     <use xlink:href="#DejaVuSans-6e" transform="translate(403.992188 0)"/>
     <use xlink:href="#DejaVuSans-74" transform="translate(467.371094 0)"/>
     <use xlink:href="#DejaVuSans-61" transform="translate(506.580078 0)"/>
     <use xlink:href="#DejaVuSans-74" transform="translate(567.859375 0)"/>
     <use xlink:href="#DejaVuSans-69" transform="translate(607.068359 0)"/>
     <use xlink:href="#DejaVuSans-6f" transform="translate(634.851562 0)"/>
     <use xlink:href="#DejaVuSans-6e" transform="translate(696.033203 0)"/>
     <use xlink:href="#DejaVuSans-20" transform="translate(759.412109 0)"/>
     <use xlink:href="#DejaVuSans-69" transform="translate(791.199219 0)"/>
     <use xlink:href="#DejaVuSans-64" transform="translate(818.982422 0)"/>
     <use xlink:href="#DejaVuSans-e9" transform="translate(882.458984 0)"/>
     <use xlink:href="#DejaVuSans-61" transform="translate(943.982422 0)"/>
     <use xlink:href="#DejaVuSans-6c" transform="translate(1005.261719 0)"/>
     <use xlink:href="#DejaVuSans-69" transform="translate(1033.044922 0)"/>
     <use xlink:href="#DejaVuSans-73" transform="translate(1060.828125 0)"/>
     <use xlink:href="#DejaVuSans-e9" transform="translate(1112.927734 0)"/>
     <use xlink:href="#DejaVuSans-65" transform="translate(1174.451172 0)"/>
    </g>
   </g>
   <g id="legend_1">
    <g id="patch_5">
     <path d="M 155.41 63.51625 
L 305.21 63.51625 
Q 307.21 63.51625 307.21 61.51625 
L 307.21 33.16 
Q 307.21 31.16 305.21 31.16 
L 155.41 31.16 
Q 153.41 31.16 153.41 33.16 
L 153.41 61.51625 
Q 153.41 63.51625 155.41 63.51625 
z
" style="fill: #ffffff; opacity: 0.8; stroke: #cccccc; stroke-linejoin: miter"/>
    </g>
    <g id="line2d_27">
     <g>
      <use xlink:href="#m6de5b71103" x="167.41" y="39.258438" style="fill: #ff0000; stroke: #ff0000"/>
     </g>
    </g>
    <g id="text_16">
     <!-- Points de mesure ($U_i, I_i$) -->
     <g transform="translate(185.41 42.758438) scale(0.1 -0.1)">
      <defs>
       <path id="DejaVuSans-50" d="M 1259 4147 
L 1259 2394 
L 2053 2394 
Q 2494 2394 2734 2622 
Q 2975 2850 2975 3272 
Q 2975 3691 2734 3919 
Q 2494 4147 2053 4147 
L 1259 4147 
z
M 628 4666 
L 2053 4666 
Q 2838 4666 3239 4311 
Q 3641 3956 3641 3272 
Q 3641 2581 3239 2228 
Q 2838 1875 2053 1875 
L 1259 1875 
L 1259 0 
L 628 0 
L 628 4666 
z
" transform="scale(0.015625)"/>
       <path id="DejaVuSans-75" d="M 544 1381 
L 544 3500 
L 1119 3500 
L 1119 1403 
Q 1119 906 1312 657 
Q 1506 409 1894 409 
Q 2359 409 2629 706 
Q 2900 1003 2900 1516 
L 2900 3500 
L 3475 3500 
L 3475 0 
L 2900 0 
L 2900 538 
Q 2691 219 2414 64 
Q 2138 -91 1772 -91 
Q 1169 -91 856 284 
Q 544 659 544 1381 
z
M 1991 3584 
L 1991 3584 
z
" transform="scale(0.015625)"/>
       <path id="DejaVuSans-Oblique-69" d="M 1172 4863 
L 1747 4863 
L 1606 4134 
L 1031 4134 
L 1172 4863 
z
M 909 3500 
L 1484 3500 
L 800 0 
L 225 0 
L 909 3500 
z
" transform="scale(0.015625)"/>
       <path id="DejaVuSans-2c" d="M 750 794 
L 1409 794 
L 1409 256 
L 897 -744 
L 494 -744 
L 750 256 
L 750 794 
z
" transform="scale(0.015625)"/>
      </defs>
      <use xlink:href="#DejaVuSans-50" transform="translate(0 0.015625)"/>
      <use xlink:href="#DejaVuSans-6f" transform="translate(60.302734 0.015625)"/>
      <use xlink:href="#DejaVuSans-69" transform="translate(121.484375 0.015625)"/>
      <use xlink:href="#DejaVuSans-6e" transform="translate(149.267578 0.015625)"/>
      <use xlink:href="#DejaVuSans-74" transform="translate(212.646484 0.015625)"/>
      <use xlink:href="#DejaVuSans-73" transform="translate(251.855469 0.015625)"/>
      <use xlink:href="#DejaVuSans-20" transform="translate(303.955078 0.015625)"/>
      <use xlink:href="#DejaVuSans-64" transform="translate(335.742188 0.015625)"/>
      <use xlink:href="#DejaVuSans-65" transform="translate(399.21875 0.015625)"/>
      <use xlink:href="#DejaVuSans-20" transform="translate(460.742188 0.015625)"/>
      <use xlink:href="#DejaVuSans-6d" transform="translate(492.529297 0.015625)"/>
      <use xlink:href="#DejaVuSans-65" transform="translate(589.941406 0.015625)"/>
      <use xlink:href="#DejaVuSans-73" transform="translate(651.464844 0.015625)"/>
      <use xlink:href="#DejaVuSans-75" transform="translate(703.564453 0.015625)"/>
      <use xlink:href="#DejaVuSans-72" transform="translate(766.943359 0.015625)"/>
      <use xlink:href="#DejaVuSans-65" transform="translate(808.056641 0.015625)"/>
      <use xlink:href="#DejaVuSans-20" transform="translate(869.580078 0.015625)"/>
      <use xlink:href="#DejaVuSans-28" transform="translate(901.367188 0.015625)"/>
      <use xlink:href="#DejaVuSans-Oblique-55" transform="translate(940.380859 0.015625)"/>
      <use xlink:href="#DejaVuSans-Oblique-69" transform="translate(1013.574219 -16.390625) scale(0.7)"/>
      <use xlink:href="#DejaVuSans-2c" transform="translate(1035.756836 0.015625)"/>
      <use xlink:href="#DejaVuSans-Oblique-49" transform="translate(1087.026367 0.015625)"/>
      <use xlink:href="#DejaVuSans-Oblique-69" transform="translate(1116.518555 -16.390625) scale(0.7)"/>
      <use xlink:href="#DejaVuSans-29" transform="translate(1138.701172 0.015625)"/>
     </g>
    </g>
    <g id="line2d_28">
     <path d="M 157.41 53.936563 
L 167.41 53.936563 
L 177.41 53.936563 
" style="fill: none; stroke: #4682b4; stroke-width: 2; stroke-linecap: square"/>
    </g>
    <g id="text_17">
     <!-- Modèle $U = 10 - 50I$ -->
     <g transform="translate(185.41 57.436563) scale(0.1 -0.1)">
      <defs>
       <path id="DejaVuSans-4d" d="M 628 4666 
L 1569 4666 
L 2759 1491 
L 3956 4666 
L 4897 4666 
L 4897 0 
L 4281 0 
L 4281 4097 
L 3078 897 
L 2444 897 
L 1241 4097 
L 1241 0 
L 628 0 
L 628 4666 
z
" transform="scale(0.015625)"/>
       <path id="DejaVuSans-e8" d="M 3597 1894 
L 3597 1613 
L 953 1613 
Q 991 1019 1311 708 
Q 1631 397 2203 397 
Q 2534 397 2845 478 
Q 3156 559 3463 722 
L 3463 178 
Q 3153 47 2828 -22 
Q 2503 -91 2169 -91 
Q 1331 -91 842 396 
Q 353 884 353 1716 
Q 353 2575 817 3079 
Q 1281 3584 2069 3584 
Q 2775 3584 3186 3129 
Q 3597 2675 3597 1894 
z
M 3022 2063 
Q 3016 2534 2758 2815 
Q 2500 3097 2075 3097 
Q 1594 3097 1305 2825 
Q 1016 2553 972 2059 
L 3022 2063 
z
M 1581 5119 
L 2463 3950 
L 1984 3950 
L 966 5119 
L 1581 5119 
z
" transform="scale(0.015625)"/>
       <path id="DejaVuSans-3d" d="M 678 2906 
L 4684 2906 
L 4684 2381 
L 678 2381 
L 678 2906 
z
M 678 1631 
L 4684 1631 
L 4684 1100 
L 678 1100 
L 678 1631 
z
" transform="scale(0.015625)"/>
       <path id="DejaVuSans-2212" d="M 678 2272 
L 4684 2272 
L 4684 1741 
L 678 1741 
L 678 2272 
z
" transform="scale(0.015625)"/>
       <path id="DejaVuSans-35" d="M 691 4666 
L 3169 4666 
L 3169 4134 
L 1269 4134 
L 1269 2991 
Q 1406 3038 1543 3061 
Q 1681 3084 1819 3084 
Q 2600 3084 3056 2656 
Q 3513 2228 3513 1497 
Q 3513 744 3044 326 
Q 2575 -91 1722 -91 
Q 1428 -91 1123 -41 
Q 819 9 494 109 
L 494 744 
Q 775 591 1075 516 
Q 1375 441 1709 441 
Q 2250 441 2565 725 
Q 2881 1009 2881 1497 
Q 2881 1984 2565 2268 
Q 2250 2553 1709 2553 
Q 1456 2553 1204 2497 
Q 953 2441 691 2322 
L 691 4666 
z
" transform="scale(0.015625)"/>
      </defs>
      <use xlink:href="#DejaVuSans-4d" transform="translate(0 0.015625)"/>
      <use xlink:href="#DejaVuSans-6f" transform="translate(86.279297 0.015625)"/>
      <use xlink:href="#DejaVuSans-64" transform="translate(147.460938 0.015625)"/>
      <use xlink:href="#DejaVuSans-e8" transform="translate(210.9375 0.015625)"/>
      <use xlink:href="#DejaVuSans-6c" transform="translate(272.460938 0.015625)"/>
      <use xlink:href="#DejaVuSans-65" transform="translate(300.244141 0.015625)"/>
      <use xlink:href="#DejaVuSans-20" transform="translate(361.767578 0.015625)"/>
      <use xlink:href="#DejaVuSans-Oblique-55" transform="translate(393.554688 0.015625)"/>
      <use xlink:href="#DejaVuSans-3d" transform="translate(486.230469 0.015625)"/>
      <use xlink:href="#DejaVuSans-31" transform="translate(589.501953 0.015625)"/>
      <use xlink:href="#DejaVuSans-30" transform="translate(653.125 0.015625)"/>
      <use xlink:href="#DejaVuSans-2212" transform="translate(736.230469 0.015625)"/>
      <use xlink:href="#DejaVuSans-35" transform="translate(839.501953 0.015625)"/>
      <use xlink:href="#DejaVuSans-30" transform="translate(903.125 0.015625)"/>
      <use xlink:href="#DejaVuSans-Oblique-49" transform="translate(966.748047 0.015625)"/>
     </g>
    </g>
   </g>
  </g>
  <g id="axes_2">
   <g id="patch_6">
    <path d="M 374.24 172.6 
L 630.81 172.6 
L 630.81 26.16 
L 374.24 26.16 
z
" style="fill: #ffffff"/>
   </g>
   <g id="patch_7">
    <path d="M 417.001667 82.457745 
C 417.872613 82.457745 418.708004 81.66914 419.323856 80.265611 
C 419.939708 78.862083 420.285738 76.958222 420.285738 74.973333 
C 420.285738 72.988444 419.939708 71.084584 419.323856 69.681055 
C 418.708004 68.277527 417.872613 67.488922 417.001667 67.488922 
C 416.130721 67.488922 415.295329 68.277527 414.679477 69.681055 
C 414.063626 71.084584 413.717595 72.988444 413.717595 74.973333 
C 413.717595 76.958222 414.063626 78.862083 414.679477 80.265611 
C 415.295329 81.66914 416.130721 82.457745 417.001667 82.457745 
z
" clip-path="url(#p95604eae2d)" style="fill: #ff0000; opacity: 0.2; stroke: #ff0000; stroke-linejoin: miter"/>
   </g>
   <g id="patch_8">
    <path d="M 459.763333 98.964146 
C 460.640893 98.964146 461.482629 98.15075 462.103158 96.703098 
C 462.723687 95.255446 463.072345 93.291733 463.072345 91.244444 
C 463.072345 89.197156 462.723687 87.233443 462.103158 85.785791 
C 461.482629 84.338139 460.640893 83.524742 459.763333 83.524742 
C 458.885773 83.524742 458.044038 84.338139 457.423509 85.785791 
C 456.80298 87.233443 456.454322 89.197156 456.454322 91.244444 
C 456.454322 93.291733 456.80298 95.255446 457.423509 96.703098 
C 458.044038 98.15075 458.885773 98.964146 459.763333 98.964146 
z
" clip-path="url(#p95604eae2d)" style="fill: #ff0000; opacity: 0.2; stroke: #ff0000; stroke-linejoin: miter"/>
   </g>
   <g id="patch_9">
    <path d="M 502.525 117.247392 
C 503.524336 117.247392 504.482876 116.221985 505.189513 114.397003 
C 505.89615 112.572022 506.293191 110.096469 506.293191 107.515556 
C 506.293191 104.934642 505.89615 102.459089 505.189513 100.634108 
C 504.482876 98.809126 503.524336 97.783719 502.525 97.783719 
C 501.525664 97.783719 500.567124 98.809126 499.860487 100.634108 
C 499.15385 102.459089 498.756809 104.934642 498.756809 107.515556 
C 498.756809 110.096469 499.15385 112.572022 499.860487 114.397003 
C 500.567124 116.221985 501.525664 117.247392 502.525 117.247392 
z
" clip-path="url(#p95604eae2d)" style="fill: #ff0000; opacity: 0.2; stroke: #ff0000; stroke-linejoin: miter"/>
   </g>
   <g id="patch_10">
    <path d="M 545.286667 131.295912 
C 546.361264 131.295912 547.391993 130.504691 548.151848 129.096505 
C 548.911703 127.688319 549.338645 125.778142 549.338645 123.786667 
C 549.338645 121.795191 548.911703 119.885014 548.151848 118.476828 
C 547.391993 117.068643 546.361264 116.277421 545.286667 116.277421 
C 544.212069 116.277421 543.18134 117.068643 542.421485 118.476828 
C 541.66163 119.885014 541.234688 121.795191 541.234688 123.786667 
C 541.234688 125.778142 541.66163 127.688319 542.421485 129.096505 
C 543.18134 130.504691 544.212069 131.295912 545.286667 131.295912 
z
" clip-path="url(#p95604eae2d)" style="fill: #ff0000; opacity: 0.2; stroke: #ff0000; stroke-linejoin: miter"/>
   </g>
   <g id="patch_11">
    <path d="M 588.048333 148.173889 
C 589.024243 148.173889 589.960313 147.318725 590.650386 145.796735 
C 591.340458 144.274746 591.728191 142.210196 591.728191 140.057778 
C 591.728191 137.90536 591.340458 135.84081 590.650386 134.31882 
C 589.960313 132.796831 589.024243 131.941666 588.048333 131.941666 
C 587.072424 131.941666 586.136353 132.796831 585.446281 134.31882 
C 584.756209 135.84081 584.368476 137.90536 584.368476 140.057778 
C 584.368476 142.210196 584.756209 144.274746 585.446281 145.796735 
C 586.136353 147.318725 587.072424 148.173889 588.048333 148.173889 
z
" clip-path="url(#p95604eae2d)" style="fill: #ff0000; opacity: 0.2; stroke: #ff0000; stroke-linejoin: miter"/>
   </g>
   <g id="matplotlib.axis_3">
    <g id="xtick_8">
     <g id="line2d_29">
      <path d="M 374.24 172.6 
L 374.24 26.16 
" clip-path="url(#p95604eae2d)" style="fill: none; stroke-dasharray: 0.8,1.32; stroke-dashoffset: 0; stroke: #b0b0b0; stroke-opacity: 0.4; stroke-width: 0.8"/>
     </g>
     <g id="line2d_30">
      <g>
       <use xlink:href="#m5072737e17" x="374.24" y="172.6" style="stroke: #000000; stroke-width: 0.8"/>
      </g>
     </g>
     <g id="text_18">
      <!-- 0 -->
      <g transform="translate(371.05875 187.198438) scale(0.1 -0.1)">
       <use xlink:href="#DejaVuSans-30"/>
      </g>
     </g>
    </g>
    <g id="xtick_9">
     <g id="line2d_31">
      <path d="M 417.001667 172.6 
L 417.001667 26.16 
" clip-path="url(#p95604eae2d)" style="fill: none; stroke-dasharray: 0.8,1.32; stroke-dashoffset: 0; stroke: #b0b0b0; stroke-opacity: 0.4; stroke-width: 0.8"/>
     </g>
     <g id="line2d_32">
      <g>
       <use xlink:href="#m5072737e17" x="417.001667" y="172.6" style="stroke: #000000; stroke-width: 0.8"/>
      </g>
     </g>
     <g id="text_19">
      <!-- 2 -->
      <g transform="translate(413.820417 187.198438) scale(0.1 -0.1)">
       <use xlink:href="#DejaVuSans-32"/>
      </g>
     </g>
    </g>
    <g id="xtick_10">
     <g id="line2d_33">
      <path d="M 459.763333 172.6 
L 459.763333 26.16 
" clip-path="url(#p95604eae2d)" style="fill: none; stroke-dasharray: 0.8,1.32; stroke-dashoffset: 0; stroke: #b0b0b0; stroke-opacity: 0.4; stroke-width: 0.8"/>
     </g>
     <g id="line2d_34">
      <g>
       <use xlink:href="#m5072737e17" x="459.763333" y="172.6" style="stroke: #000000; stroke-width: 0.8"/>
      </g>
     </g>
     <g id="text_20">
      <!-- 4 -->
      <g transform="translate(456.582083 187.198438) scale(0.1 -0.1)">
       <use xlink:href="#DejaVuSans-34"/>
      </g>
     </g>
    </g>
    <g id="xtick_11">
     <g id="line2d_35">
      <path d="M 502.525 172.6 
L 502.525 26.16 
" clip-path="url(#p95604eae2d)" style="fill: none; stroke-dasharray: 0.8,1.32; stroke-dashoffset: 0; stroke: #b0b0b0; stroke-opacity: 0.4; stroke-width: 0.8"/>
     </g>
     <g id="line2d_36">
      <g>
       <use xlink:href="#m5072737e17" x="502.525" y="172.6" style="stroke: #000000; stroke-width: 0.8"/>
      </g>
     </g>
     <g id="text_21">
      <!-- 6 -->
      <g transform="translate(499.34375 187.198438) scale(0.1 -0.1)">
       <use xlink:href="#DejaVuSans-36"/>
      </g>
     </g>
    </g>
    <g id="xtick_12">
     <g id="line2d_37">
      <path d="M 545.286667 172.6 
L 545.286667 26.16 
" clip-path="url(#p95604eae2d)" style="fill: none; stroke-dasharray: 0.8,1.32; stroke-dashoffset: 0; stroke: #b0b0b0; stroke-opacity: 0.4; stroke-width: 0.8"/>
     </g>
     <g id="line2d_38">
      <g>
       <use xlink:href="#m5072737e17" x="545.286667" y="172.6" style="stroke: #000000; stroke-width: 0.8"/>
      </g>
     </g>
     <g id="text_22">
      <!-- 8 -->
      <g transform="translate(542.105417 187.198438) scale(0.1 -0.1)">
       <use xlink:href="#DejaVuSans-38"/>
      </g>
     </g>
    </g>
    <g id="xtick_13">
     <g id="line2d_39">
      <path d="M 588.048333 172.6 
L 588.048333 26.16 
" clip-path="url(#p95604eae2d)" style="fill: none; stroke-dasharray: 0.8,1.32; stroke-dashoffset: 0; stroke: #b0b0b0; stroke-opacity: 0.4; stroke-width: 0.8"/>
     </g>
     <g id="line2d_40">
      <g>
       <use xlink:href="#m5072737e17" x="588.048333" y="172.6" style="stroke: #000000; stroke-width: 0.8"/>
      </g>
     </g>
     <g id="text_23">
      <!-- 10 -->
      <g transform="translate(581.685833 187.198438) scale(0.1 -0.1)">
       <use xlink:href="#DejaVuSans-31"/>
       <use xlink:href="#DejaVuSans-30" transform="translate(63.623047 0)"/>
      </g>
     </g>
    </g>
    <g id="xtick_14">
     <g id="line2d_41">
      <path d="M 630.81 172.6 
L 630.81 26.16 
" clip-path="url(#p95604eae2d)" style="fill: none; stroke-dasharray: 0.8,1.32; stroke-dashoffset: 0; stroke: #b0b0b0; stroke-opacity: 0.4; stroke-width: 0.8"/>
     </g>
     <g id="line2d_42">
      <g>
       <use xlink:href="#m5072737e17" x="630.81" y="172.6" style="stroke: #000000; stroke-width: 0.8"/>
      </g>
     </g>
     <g id="text_24">
      <!-- 12 -->
      <g transform="translate(624.4475 187.198438) scale(0.1 -0.1)">
       <use xlink:href="#DejaVuSans-31"/>
       <use xlink:href="#DejaVuSans-32" transform="translate(63.623047 0)"/>
      </g>
     </g>
    </g>
    <g id="text_25">
     <!-- $I$ (mA) -->
     <g transform="translate(487.225 200.876563) scale(0.1 -0.1)">
      <use xlink:href="#DejaVuSans-Oblique-49" transform="translate(0 0.125)"/>
      <use xlink:href="#DejaVuSans-20" transform="translate(29.492188 0.125)"/>
      <use xlink:href="#DejaVuSans-28" transform="translate(61.279297 0.125)"/>
      <use xlink:href="#DejaVuSans-6d" transform="translate(100.292969 0.125)"/>
      <use xlink:href="#DejaVuSans-41" transform="translate(197.705078 0.125)"/>
      <use xlink:href="#DejaVuSans-29" transform="translate(266.113281 0.125)"/>
     </g>
    </g>
   </g>
   <g id="matplotlib.axis_4">
    <g id="ytick_6">
     <g id="line2d_43">
      <path d="M 374.24 156.328889 
L 630.81 156.328889 
" clip-path="url(#p95604eae2d)" style="fill: none; stroke-dasharray: 0.8,1.32; stroke-dashoffset: 0; stroke: #b0b0b0; stroke-opacity: 0.4; stroke-width: 0.8"/>
     </g>
     <g id="line2d_44">
      <g>
       <use xlink:href="#m54657a6941" x="374.24" y="156.328889" style="stroke: #000000; stroke-width: 0.8"/>
      </g>
     </g>
     <g id="text_26">
      <!-- 9.4 -->
      <g transform="translate(351.336875 160.128108) scale(0.1 -0.1)">
       <use xlink:href="#DejaVuSans-39"/>
       <use xlink:href="#DejaVuSans-2e" transform="translate(63.623047 0)"/>
       <use xlink:href="#DejaVuSans-34" transform="translate(95.410156 0)"/>
      </g>
     </g>
    </g>
    <g id="ytick_7">
     <g id="line2d_45">
      <path d="M 374.24 123.786667 
L 630.81 123.786667 
" clip-path="url(#p95604eae2d)" style="fill: none; stroke-dasharray: 0.8,1.32; stroke-dashoffset: 0; stroke: #b0b0b0; stroke-opacity: 0.4; stroke-width: 0.8"/>
     </g>
     <g id="line2d_46">
      <g>
       <use xlink:href="#m54657a6941" x="374.24" y="123.786667" style="stroke: #000000; stroke-width: 0.8"/>
      </g>
     </g>
     <g id="text_27">
      <!-- 9.6 -->
      <g transform="translate(351.336875 127.585885) scale(0.1 -0.1)">
       <use xlink:href="#DejaVuSans-39"/>
       <use xlink:href="#DejaVuSans-2e" transform="translate(63.623047 0)"/>
       <use xlink:href="#DejaVuSans-36" transform="translate(95.410156 0)"/>
      </g>
     </g>
    </g>
    <g id="ytick_8">
     <g id="line2d_47">
      <path d="M 374.24 91.244444 
L 630.81 91.244444 
" clip-path="url(#p95604eae2d)" style="fill: none; stroke-dasharray: 0.8,1.32; stroke-dashoffset: 0; stroke: #b0b0b0; stroke-opacity: 0.4; stroke-width: 0.8"/>
     </g>
     <g id="line2d_48">
      <g>
       <use xlink:href="#m54657a6941" x="374.24" y="91.244444" style="stroke: #000000; stroke-width: 0.8"/>
      </g>
     </g>
     <g id="text_28">
      <!-- 9.8 -->
      <g transform="translate(351.336875 95.043663) scale(0.1 -0.1)">
       <use xlink:href="#DejaVuSans-39"/>
       <use xlink:href="#DejaVuSans-2e" transform="translate(63.623047 0)"/>
       <use xlink:href="#DejaVuSans-38" transform="translate(95.410156 0)"/>
      </g>
     </g>
    </g>
    <g id="ytick_9">
     <g id="line2d_49">
      <path d="M 374.24 58.702222 
L 630.81 58.702222 
" clip-path="url(#p95604eae2d)" style="fill: none; stroke-dasharray: 0.8,1.32; stroke-dashoffset: 0; stroke: #b0b0b0; stroke-opacity: 0.4; stroke-width: 0.8"/>
     </g>
     <g id="line2d_50">
      <g>
       <use xlink:href="#m54657a6941" x="374.24" y="58.702222" style="stroke: #000000; stroke-width: 0.8"/>
      </g>
     </g>
     <g id="text_29">
      <!-- 10.0 -->
      <g transform="translate(344.974375 62.501441) scale(0.1 -0.1)">
       <use xlink:href="#DejaVuSans-31"/>
       <use xlink:href="#DejaVuSans-30" transform="translate(63.623047 0)"/>
       <use xlink:href="#DejaVuSans-2e" transform="translate(127.246094 0)"/>
       <use xlink:href="#DejaVuSans-30" transform="translate(159.033203 0)"/>
      </g>
     </g>
    </g>
    <g id="ytick_10">
     <g id="line2d_51">
      <path d="M 374.24 26.16 
L 630.81 26.16 
" clip-path="url(#p95604eae2d)" style="fill: none; stroke-dasharray: 0.8,1.32; stroke-dashoffset: 0; stroke: #b0b0b0; stroke-opacity: 0.4; stroke-width: 0.8"/>
     </g>
     <g id="line2d_52">
      <g>
       <use xlink:href="#m54657a6941" x="374.24" y="26.16" style="stroke: #000000; stroke-width: 0.8"/>
      </g>
     </g>
     <g id="text_30">
      <!-- 10.2 -->
      <g transform="translate(344.974375 29.959219) scale(0.1 -0.1)">
       <use xlink:href="#DejaVuSans-31"/>
       <use xlink:href="#DejaVuSans-30" transform="translate(63.623047 0)"/>
       <use xlink:href="#DejaVuSans-2e" transform="translate(127.246094 0)"/>
       <use xlink:href="#DejaVuSans-32" transform="translate(159.033203 0)"/>
      </g>
     </g>
    </g>
    <g id="text_31">
     <!-- $U$ (V) -->
     <g transform="translate(338.894688 111.98) rotate(-90) scale(0.1 -0.1)">
      <use xlink:href="#DejaVuSans-Oblique-55" transform="translate(0 0.125)"/>
      <use xlink:href="#DejaVuSans-20" transform="translate(73.193359 0.125)"/>
      <use xlink:href="#DejaVuSans-28" transform="translate(104.980469 0.125)"/>
      <use xlink:href="#DejaVuSans-56" transform="translate(143.994141 0.125)"/>
      <use xlink:href="#DejaVuSans-29" transform="translate(212.402344 0.125)"/>
     </g>
    </g>
   </g>
   <g id="line2d_53">
    <path d="M 374.24 61.007706 
L 630.81 150.216774 
" clip-path="url(#p95604eae2d)" style="fill: none; stroke: #4682b4; stroke-opacity: 0.3; stroke-linecap: square"/>
   </g>
   <g id="line2d_54">
    <path d="M 374.24 54.615188 
L 630.81 152.402754 
" clip-path="url(#p95604eae2d)" style="fill: none; stroke: #4682b4; stroke-opacity: 0.3; stroke-linecap: square"/>
   </g>
   <g id="line2d_55">
    <path d="M 374.24 48.387747 
L 630.81 161.294072 
" clip-path="url(#p95604eae2d)" style="fill: none; stroke: #4682b4; stroke-opacity: 0.3; stroke-linecap: square"/>
   </g>
   <g id="line2d_56">
    <path d="M 374.24 63.59302 
L 630.81 156.639824 
" clip-path="url(#p95604eae2d)" style="fill: none; stroke: #4682b4; stroke-opacity: 0.3; stroke-linecap: square"/>
   </g>
   <g id="line2d_57">
    <path d="M 374.24 59.27626 
L 630.81 153.073025 
" clip-path="url(#p95604eae2d)" style="fill: none; stroke: #4682b4; stroke-opacity: 0.3; stroke-linecap: square"/>
   </g>
   <g id="line2d_58">
    <path d="M 374.24 55.289051 
L 630.81 160.888566 
" clip-path="url(#p95604eae2d)" style="fill: none; stroke: #4682b4; stroke-opacity: 0.3; stroke-linecap: square"/>
   </g>
   <g id="line2d_59">
    <path d="M 374.24 58.567527 
L 630.81 156.93982 
" clip-path="url(#p95604eae2d)" style="fill: none; stroke: #4682b4; stroke-opacity: 0.3; stroke-linecap: square"/>
   </g>
   <g id="line2d_60">
    <path d="M 374.24 61.031614 
L 630.81 157.681105 
" clip-path="url(#p95604eae2d)" style="fill: none; stroke: #4682b4; stroke-opacity: 0.3; stroke-linecap: square"/>
   </g>
   <g id="line2d_61">
    <path d="M 374.24 51.080279 
L 630.81 164.559145 
" clip-path="url(#p95604eae2d)" style="fill: none; stroke: #4682b4; stroke-opacity: 0.3; stroke-linecap: square"/>
   </g>
   <g id="line2d_62">
    <path d="M 374.24 62.436479 
L 630.81 147.014935 
" clip-path="url(#p95604eae2d)" style="fill: none; stroke: #4682b4; stroke-opacity: 0.3; stroke-linecap: square"/>
   </g>
   <g id="patch_12">
    <path d="M 374.24 172.6 
L 374.24 26.16 
" style="fill: none; stroke: #000000; stroke-width: 0.8; stroke-linejoin: miter; stroke-linecap: square"/>
   </g>
   <g id="patch_13">
    <path d="M 374.24 172.6 
L 630.81 172.6 
" style="fill: none; stroke: #000000; stroke-width: 0.8; stroke-linejoin: miter; stroke-linecap: square"/>
   </g>
   <g id="text_32">
    <!-- Représentation réaliste -->
    <g transform="translate(432.849063 20.16) scale(0.12 -0.12)">
     <use xlink:href="#DejaVuSans-52"/>
     <use xlink:href="#DejaVuSans-65" transform="translate(64.982422 0)"/>
     <use xlink:href="#DejaVuSans-70" transform="translate(126.505859 0)"/>
     <use xlink:href="#DejaVuSans-72" transform="translate(189.982422 0)"/>
     <use xlink:href="#DejaVuSans-e9" transform="translate(228.845703 0)"/>
     <use xlink:href="#DejaVuSans-73" transform="translate(290.369141 0)"/>
     <use xlink:href="#DejaVuSans-65" transform="translate(342.46875 0)"/>
     <use xlink:href="#DejaVuSans-6e" transform="translate(403.992188 0)"/>
     <use xlink:href="#DejaVuSans-74" transform="translate(467.371094 0)"/>
     <use xlink:href="#DejaVuSans-61" transform="translate(506.580078 0)"/>
     <use xlink:href="#DejaVuSans-74" transform="translate(567.859375 0)"/>
     <use xlink:href="#DejaVuSans-69" transform="translate(607.068359 0)"/>
     <use xlink:href="#DejaVuSans-6f" transform="translate(634.851562 0)"/>
     <use xlink:href="#DejaVuSans-6e" transform="translate(696.033203 0)"/>
     <use xlink:href="#DejaVuSans-20" transform="translate(759.412109 0)"/>
     <use xlink:href="#DejaVuSans-72" transform="translate(791.199219 0)"/>
     <use xlink:href="#DejaVuSans-e9" transform="translate(830.0625 0)"/>
     <use xlink:href="#DejaVuSans-61" transform="translate(891.585938 0)"/>
     <use xlink:href="#DejaVuSans-6c" transform="translate(952.865234 0)"/>
     <use xlink:href="#DejaVuSans-69" transform="translate(980.648438 0)"/>
     <use xlink:href="#DejaVuSans-73" transform="translate(1008.431641 0)"/>
     <use xlink:href="#DejaVuSans-74" transform="translate(1060.53125 0)"/>
     <use xlink:href="#DejaVuSans-65" transform="translate(1099.740234 0)"/>
    </g>
   </g>
   <g id="legend_2">
    <g id="patch_14">
     <path d="M 471.91 63.538125 
L 623.81 63.538125 
Q 625.81 63.538125 625.81 61.538125 
L 625.81 33.16 
Q 625.81 31.16 623.81 31.16 
L 471.91 31.16 
Q 469.91 31.16 469.91 33.16 
L 469.91 61.538125 
Q 469.91 63.538125 471.91 63.538125 
z
" style="fill: #ffffff; opacity: 0.8; stroke: #cccccc; stroke-linejoin: miter"/>
    </g>
    <g id="patch_15">
     <path d="M 473.91 42.76 
L 493.91 42.76 
L 493.91 35.76 
L 473.91 35.76 
z
" style="fill: #ff0000; opacity: 0.2; stroke: #ff0000; stroke-linejoin: miter"/>
    </g>
    <g id="text_33">
     <!-- Nuage de mesure ($U_i, I_i$) -->
     <g transform="translate(501.91 42.76) scale(0.1 -0.1)">
      <defs>
       <path id="DejaVuSans-4e" d="M 628 4666 
L 1478 4666 
L 3547 763 
L 3547 4666 
L 4159 4666 
L 4159 0 
L 3309 0 
L 1241 3903 
L 1241 0 
L 628 0 
L 628 4666 
z
" transform="scale(0.015625)"/>
       <path id="DejaVuSans-67" d="M 2906 1791 
Q 2906 2416 2648 2759 
Q 2391 3103 1925 3103 
Q 1463 3103 1205 2759 
Q 947 2416 947 1791 
Q 947 1169 1205 825 
Q 1463 481 1925 481 
Q 2391 481 2648 825 
Q 2906 1169 2906 1791 
z
M 3481 434 
Q 3481 -459 3084 -895 
Q 2688 -1331 1869 -1331 
Q 1566 -1331 1297 -1286 
Q 1028 -1241 775 -1147 
L 775 -588 
Q 1028 -725 1275 -790 
Q 1522 -856 1778 -856 
Q 2344 -856 2625 -561 
Q 2906 -266 2906 331 
L 2906 616 
Q 2728 306 2450 153 
Q 2172 0 1784 0 
Q 1141 0 747 490 
Q 353 981 353 1791 
Q 353 2603 747 3093 
Q 1141 3584 1784 3584 
Q 2172 3584 2450 3431 
Q 2728 3278 2906 2969 
L 2906 3500 
L 3481 3500 
L 3481 434 
z
" transform="scale(0.015625)"/>
      </defs>
      <use xlink:href="#DejaVuSans-4e" transform="translate(0 0.015625)"/>
      <use xlink:href="#DejaVuSans-75" transform="translate(74.804688 0.015625)"/>
      <use xlink:href="#DejaVuSans-61" transform="translate(138.183594 0.015625)"/>
      <use xlink:href="#DejaVuSans-67" transform="translate(199.462891 0.015625)"/>
      <use xlink:href="#DejaVuSans-65" transform="translate(262.939453 0.015625)"/>
      <use xlink:href="#DejaVuSans-20" transform="translate(324.462891 0.015625)"/>
      <use xlink:href="#DejaVuSans-64" transform="translate(356.25 0.015625)"/>
      <use xlink:href="#DejaVuSans-65" transform="translate(419.726562 0.015625)"/>
      <use xlink:href="#DejaVuSans-20" transform="translate(481.25 0.015625)"/>
      <use xlink:href="#DejaVuSans-6d" transform="translate(513.037109 0.015625)"/>
      <use xlink:href="#DejaVuSans-65" transform="translate(610.449219 0.015625)"/>
      <use xlink:href="#DejaVuSans-73" transform="translate(671.972656 0.015625)"/>
      <use xlink:href="#DejaVuSans-75" transform="translate(724.072266 0.015625)"/>
      <use xlink:href="#DejaVuSans-72" transform="translate(787.451172 0.015625)"/>
      <use xlink:href="#DejaVuSans-65" transform="translate(828.564453 0.015625)"/>
      <use xlink:href="#DejaVuSans-20" transform="translate(890.087891 0.015625)"/>
      <use xlink:href="#DejaVuSans-28" transform="translate(921.875 0.015625)"/>
      <use xlink:href="#DejaVuSans-Oblique-55" transform="translate(960.888672 0.015625)"/>
      <use xlink:href="#DejaVuSans-Oblique-69" transform="translate(1034.082031 -16.390625) scale(0.7)"/>
      <use xlink:href="#DejaVuSans-2c" transform="translate(1056.264648 0.015625)"/>
      <use xlink:href="#DejaVuSans-Oblique-49" transform="translate(1107.53418 0.015625)"/>
      <use xlink:href="#DejaVuSans-Oblique-69" transform="translate(1137.026367 -16.390625) scale(0.7)"/>
      <use xlink:href="#DejaVuSans-29" transform="translate(1159.208984 0.015625)"/>
     </g>
    </g>
    <g id="line2d_63">
     <path d="M 473.91 53.958438 
L 483.91 53.958438 
L 493.91 53.958438 
" style="fill: none; stroke: #4682b4; stroke-opacity: 0.3; stroke-linecap: square"/>
    </g>
    <g id="text_34">
     <!-- Modèles raisonnables -->
     <g transform="translate(501.91 57.458438) scale(0.1 -0.1)">
      <defs>
       <path id="DejaVuSans-62" d="M 3116 1747 
Q 3116 2381 2855 2742 
Q 2594 3103 2138 3103 
Q 1681 3103 1420 2742 
Q 1159 2381 1159 1747 
Q 1159 1113 1420 752 
Q 1681 391 2138 391 
Q 2594 391 2855 752 
Q 3116 1113 3116 1747 
z
M 1159 2969 
Q 1341 3281 1617 3432 
Q 1894 3584 2278 3584 
Q 2916 3584 3314 3078 
Q 3713 2572 3713 1747 
Q 3713 922 3314 415 
Q 2916 -91 2278 -91 
Q 1894 -91 1617 61 
Q 1341 213 1159 525 
L 1159 0 
L 581 0 
L 581 4863 
L 1159 4863 
L 1159 2969 
z
" transform="scale(0.015625)"/>
      </defs>
      <use xlink:href="#DejaVuSans-4d"/>
      <use xlink:href="#DejaVuSans-6f" transform="translate(86.279297 0)"/>
      <use xlink:href="#DejaVuSans-64" transform="translate(147.460938 0)"/>
      <use xlink:href="#DejaVuSans-e8" transform="translate(210.9375 0)"/>
      <use xlink:href="#DejaVuSans-6c" transform="translate(272.460938 0)"/>
      <use xlink:href="#DejaVuSans-65" transform="translate(300.244141 0)"/>
      <use xlink:href="#DejaVuSans-73" transform="translate(361.767578 0)"/>
      <use xlink:href="#DejaVuSans-20" transform="translate(413.867188 0)"/>
      <use xlink:href="#DejaVuSans-72" transform="translate(445.654297 0)"/>
      <use xlink:href="#DejaVuSans-61" transform="translate(486.767578 0)"/>
      <use xlink:href="#DejaVuSans-69" transform="translate(548.046875 0)"/>
      <use xlink:href="#DejaVuSans-73" transform="translate(575.830078 0)"/>
      <use xlink:href="#DejaVuSans-6f" transform="translate(627.929688 0)"/>
      <use xlink:href="#DejaVuSans-6e" transform="translate(689.111328 0)"/>
      <use xlink:href="#DejaVuSans-6e" transform="translate(752.490234 0)"/>
      <use xlink:href="#DejaVuSans-61" transform="translate(815.869141 0)"/>
      <use xlink:href="#DejaVuSans-62" transform="translate(877.148438 0)"/>
      <use xlink:href="#DejaVuSans-6c" transform="translate(940.625 0)"/>
      <use xlink:href="#DejaVuSans-65" transform="translate(968.408203 0)"/>
      <use xlink:href="#DejaVuSans-73" transform="translate(1029.931641 0)"/>
     </g>
    </g>
   </g>
  </g>
 </g>
 <defs>
  <clipPath id="p5cf5b6c7b2">
   <rect x="55.64" y="26.16" width="256.57" height="146.44"/>
  </clipPath>
  <clipPath id="p95604eae2d">
   <rect x="374.24" y="26.16" width="256.57" height="146.44"/>
  </clipPath>
 </defs>
</svg>
